<?xml version="1.0" standalone="no"?> 
<!DOCTYPE svg PUBLIC "-//W3C//DTD SVG 1.1//EN" "http://www.w3.org/Graphics/SVG/1.1/DTD/svg11.dtd">

<svg viewBox="90.0 -170.0 120.0 80.0 " width="120.0" height="80.0"  version="1.1" xmlns="http://www.w3.org/2000/svg">
 <g stroke="rgb(0,0,0)" fill="rgba(255,255,255,0)" style="fill-opacity:1;fill:none" >
<rect x="100" y="-160.0" width="100.0" height="60.0" />

<rect x="90.0" y="-100.0" width="10.0" height="10.0" />

<rect x="100.0" y="-100.0" width="10.0" height="10.0" />

<rect x="110.0" y="-100.0" width="10.0" height="10.0" />

<rect x="120.0" y="-100.0" width="10.0" height="10.0" />

<rect x="130.0" y="-100.0" width="10.0" height="10.0" />

<rect x="140.0" y="-100.0" width="10.0" height="10.0" />

<rect x="150.0" y="-100.0" width="10.0" height="10.0" />

<rect x="90.0" y="-170.0" width="10.0" height="10.0" />

<rect x="100.0" y="-170.0" width="10.0" height="10.0" />

<rect x="110.0" y="-170.0" width="10.0" height="10.0" />

<rect x="120.0" y="-170.0" width="10.0" height="10.0" />

<rect x="130.0" y="-170.0" width="10.0" height="10.0" />

<rect x="140.0" y="-170.0" width="10.0" height="10.0" />

<rect x="150.0" y="-170.0" width="10.0" height="10.0" />

<rect x="90.0" y="-110.0" width="10.0" height="10.0" />

<rect x="90.0" y="-120.0" width="10.0" height="10.0" />

<rect x="90.0" y="-130.0" width="10.0" height="10.0" />

<rect x="200.0" y="-110.0" width="10.0" height="10.0" />

<rect x="200.0" y="-120.0" width="10.0" height="10.0" />

<rect x="200.0" y="-130.0" width="10.0" height="10.0" />

</g></svg>